<?xml version="1.0" standalone="no"?>
<!DOCTYPE svg PUBLIC "-//W3C//DTD SVG 20010904//EN"
 "http://www.w3.org/TR/2001/REC-SVG-20010904/DTD/svg10.dtd">
<svg version="1.0" xmlns="http://www.w3.org/2000/svg"
 width="256.000000pt" height="256.000000pt" viewBox="0 0 300.000000 300.000000"
 preserveAspectRatio="xMidYMid meet">

<g transform="translate(0.000000,300.000000) scale(0.100000,-0.100000)"
fill="#0078d7" stroke="none">
<path d="M1265 2975 c-645 -105 -1146 -614 -1241 -1258 -21 -144 -15 -461 11
-552 62 -222 219 -383 417 -430 85 -20 240 -19 309 1 101 30 206 94 269 165
l25 28 70 -44 c38 -24 108 -57 155 -72 77 -25 99 -28 225 -28 120 0 150 3 210
23 233 78 399 244 477 477 20 60 23 90 23 215 0 125 -3 155 -23 215 -78 233
-244 399 -477 477 -60 20 -90 23 -215 23 -125 0 -155 -3 -215 -23 -231 -77
-396 -241 -476 -472 -19 -56 -22 -91 -26 -250 -2 -102 -6 -195 -9 -208 -6 -31
-68 -97 -104 -112 -40 -17 -125 -8 -158 17 -15 10 -38 41 -52 69 -24 47 -25
55 -24 239 1 171 3 199 27 287 102 381 395 674 775 775 85 23 117 26 262 26
147 1 176 -2 262 -26 381 -102 674 -395 775 -775 23 -86 26 -116 26 -262 0
-146 -3 -176 -26 -262 -101 -380 -395 -674 -775 -775 -84 -23 -118 -26 -257
-27 -177 -1 -270 16 -407 73 l-69 30 -43 -67 c-111 -174 -134 -210 -159 -249
l-27 -43 61 -30 c95 -49 255 -98 390 -121 106 -18 149 -21 294 -16 250 8 408
47 620 152 412 205 710 596 802 1052 25 124 25 442 0 566 -119 591 -573 1051
-1162 1179 -122 26 -413 33 -540 13z m374 -1210 c59 -32 100 -75 133 -138 19
-34 23 -58 23 -127 0 -69 -4 -93 -23 -127 -33 -63 -74 -106 -134 -139 -47 -26
-62 -29 -138 -29 -93 0 -137 16 -203 74 -76 67 -115 198 -88 298 24 90 116
185 205 213 17 5 63 8 102 6 55 -2 82 -9 123 -31z"/>
</g>
</svg>
